<svg height="512" viewBox="0 0 64 64" width="512" xmlns="http://www.w3.org/2000/svg"><g id="facemask-virus-covid19-corona-mask"><path d="m51.374 19.69-10.018-1.908a50.022 50.022 0 0 0 -18.712 0l-10.018 1.908a2 2 0 0 0 -1.626 1.965v20.69a2 2 0 0 0 1.626 1.965l10.018 1.908a50.022 50.022 0 0 0 18.712 0l10.018-1.908a2 2 0 0 0 1.626-1.965v-20.69a2 2 0 0 0 -1.626-1.965z" fill="#57a4ff"/><path d="m51.374 19.69-4.374-.833v.143a22 22 0 0 1 -22 22h-14v1.345a2 2 0 0 0 1.626 1.965l10.018 1.908a50.022 50.022 0 0 0 18.712 0l10.018-1.908a2 2 0 0 0 1.626-1.965v-20.69a2 2 0 0 0 -1.626-1.965z" fill="#4e94e5"/><g fill="#231f20"><path d="m54 22.06v-.41a3.007 3.007 0 0 0 -2.44-2.94l-10.02-1.91a50.6 50.6 0 0 0 -19.08 0l-10.02 1.91a3.007 3.007 0 0 0 -2.44 2.94v.41a9.016 9.016 0 0 0 -8 8.94v2a9.016 9.016 0 0 0 8 8.94v.41a3.007 3.007 0 0 0 2.44 2.94l10.02 1.91a51.11 51.11 0 0 0 9.54.9 51.11 51.11 0 0 0 9.54-.9l10.02-1.91a3.007 3.007 0 0 0 2.44-2.94v-.41a9.016 9.016 0 0 0 8-8.94v-2a9.016 9.016 0 0 0 -8-8.94zm-44 17.87a7.013 7.013 0 0 1 -6-6.93v-2a7.013 7.013 0 0 1 6-6.93zm42 2.42a1 1 0 0 1 -.81.98l-10.02 1.91a49.178 49.178 0 0 1 -18.34 0l-10.02-1.91a1 1 0 0 1 -.81-.98v-20.7a1 1 0 0 1 .81-.98l10.02-1.91a49.319 49.319 0 0 1 18.34 0l10.02 1.91a1 1 0 0 1 .81.98zm8-9.35a7.013 7.013 0 0 1 -6 6.93v-15.86a7.013 7.013 0 0 1 6 6.93z"/><path d="m47 31h-30a1 1 0 0 0 0 2h30a1 1 0 0 0 0-2z"/><path d="m47 25h-30a1 1 0 0 0 0 2h30a1 1 0 0 0 0-2z"/><path d="m47 37h-30a1 1 0 0 0 0 2h30a1 1 0 0 0 0-2z"/></g></g></svg>